HIERARCHY
ROOT Hips
{
	OFFSET 0.000000 0.000000 0.000000 
	CHANNELS 6 Xposition Yposition Zposition Zrotation Yrotation Xrotation
	JOINT LeftUpLeg
	{
		OFFSET 1.363060 -1.794630 0.839290 
		CHANNELS 3 Zrotation Yrotation Xrotation
		JOINT LeftLeg
		{
			OFFSET 2.448110 -6.726130 0.000000 
			CHANNELS 3 Zrotation Yrotation Xrotation
			JOINT LeftFoot
			{
				OFFSET 2.562200 -7.039590 0.000000 
				CHANNELS 3 Zrotation Yrotation Xrotation
				JOINT LeftToeBase
				{
					OFFSET 0.157640 -0.433110 2.322550 
					CHANNELS 3 Zrotation Yrotation Xrotation
					End Site
					{
						OFFSET 0.000000 0.000000 0.000000 
					}
				}
			}
		}
	}
	JOINT RightUpLeg
	{
		OFFSET -1.305520 -1.794630 0.839290 
		CHANNELS 3 Zrotation Yrotation Xrotation
		JOINT RightLeg
		{
			OFFSET -2.542530 -6.985550 0.000000 
			CHANNELS 3 Zrotation Yrotation Xrotation
			JOINT RightFoot
			{
				OFFSET -2.568260 -7.056230 0.000000 
				CHANNELS 3 Zrotation Yrotation Xrotation
				JOINT RightToeBase
				{
					OFFSET -0.164730 -0.452590 2.363150 
					CHANNELS 3 Zrotation Yrotation Xrotation
					End Site
					{
						OFFSET 0.000000 0.000000 0.000000 
					}
				}
			}
		}
	}
	JOINT Spine
	{
		OFFSET 0.028270 2.035590 -0.193380 
		CHANNELS 3 Zrotation Yrotation Xrotation
		JOINT Spine1
		{
			OFFSET 0.056720 2.048850 -0.042750 
			CHANNELS 3 Zrotation Yrotation Xrotation
			JOINT Neck1
			{
				OFFSET -0.054170 1.746240 0.172020 
				CHANNELS 3 Zrotation Yrotation Xrotation
				JOINT Head
				{
					OFFSET 0.104070 1.761360 -0.123970 
					CHANNELS 3 Zrotation Yrotation Xrotation
					End Site
					{
						OFFSET 0.000000 0.000000 0.000000 
					}
				}
			}
			JOINT LeftArm
			{
				OFFSET 3.362410 1.200890 -0.311210 
				CHANNELS 3 Zrotation Yrotation Xrotation
				JOINT LeftForeArm
				{
					OFFSET 4.983000 -0.000000 -0.000000 
					CHANNELS 3 Zrotation Yrotation Xrotation
					JOINT LeftHand
					{
						OFFSET 3.483560 -0.000000 -0.000000 
						CHANNELS 3 Zrotation Yrotation Xrotation
						JOINT LeftHandIndex1
						{
							OFFSET 0.715260 -0.000000 -0.000000 
							CHANNELS 3 Zrotation Yrotation Xrotation
							End Site
							{
								OFFSET 0.000000 0.000000 0.000000 
							}
						}
					}
				}
			}
			JOINT RightArm
			{
				OFFSET -3.136600 1.374050 -0.404650 
				CHANNELS 3 Zrotation Yrotation Xrotation
				JOINT RightForeArm
				{
					OFFSET -5.241900 -0.000000 -0.000000 
					CHANNELS 3 Zrotation Yrotation Xrotation
					JOINT RightHand
					{
						OFFSET -3.444170 -0.000000 -0.000000 
						CHANNELS 3 Zrotation Yrotation Xrotation
						JOINT RightHandIndex1
						{
							OFFSET -0.622530 -0.000000 -0.000000 
							CHANNELS 3 Zrotation Yrotation Xrotation
							End Site
							{
								OFFSET 0.000000 0.000000 0.000000 
							}
						}
					}
				}
			}
		}
	}
}
MOTION
Frames: 18
Frame Time: 0.041667
10.441304 17.880639 10.786735 179.154882 -2.210703 -151.970105 -24.485406 -21.151369 -20.247972 -1.233631 4.453517 8.932768 0.587268 -1.608648 -15.980468 4.375700 -12.644200 -38.050900 30.114714 19.078166 -18.706634 1.184362 -3.770269 7.631461 -1.025836 0.404823 -20.787890 -2.629100 10.069000 -29.200400 1.668112 -1.342752 -6.266501 -1.413335 -1.552041 11.337757 12.288895 -1.736566 16.939287 2.634000 -0.220100 2.845500 -107.579601 -4.502879 20.039124 11.341089 -12.114604 -1.548677 -1.514533 0.887307 6.920533 -7.125000 0.000000 0.000000 99.384944 -2.645336 13.582648 -13.192667 23.478424 -3.566700 1.086524 3.709227 7.231193 7.125000 0.000000 0.000000 
10.439118 17.878562 10.780942 179.059016 -2.180516 -151.937567 -24.619724 -21.188199 -20.271151 -1.231388 4.493354 9.028886 0.593792 -1.603932 -16.064005 4.373700 -12.641700 -38.041600 29.965590 19.105467 -18.735611 1.178417 -3.781368 7.655496 -1.002282 0.379821 -20.561913 -2.548900 9.926300 -28.738300 1.635809 -1.277407 -6.267117 -1.433832 -1.524450 11.319316 12.402100 -1.735619 16.841508 2.682900 -0.220900 2.824400 -107.654369 -4.723805 20.194026 11.637735 -12.605752 -1.661067 -1.529322 0.923321 6.963297 -7.125000 0.000000 0.000000 98.703838 -1.455494 7.060456 -13.794431 24.224830 -3.896088 0.847298 3.717969 1.701547 7.125000 0.000000 0.000000 
10.440539 17.875283 10.772087 179.100635 -2.143374 -151.954828 -24.599474 -21.141291 -20.195804 -1.235502 4.462683 8.968711 0.603348 -1.529513 -16.042507 4.282600 -12.527300 -37.623800 30.055141 19.041938 -18.691297 1.175461 -3.769204 7.639385 -0.990993 0.416883 -20.438619 -2.612600 10.039800 -29.105600 1.626684 -1.223699 -6.287404 -1.428938 -1.498853 11.192661 12.473730 -1.725688 16.784547 2.705400 -0.217500 2.802000 -107.717385 -4.770846 20.879774 11.992572 -13.179267 -1.796383 -1.592689 0.878664 6.115061 -7.125000 0.000000 0.000000 98.735812 -1.571692 8.704606 -14.884348 25.706821 -4.443030 0.756753 3.781776 0.089876 7.125000 0.000000 0.000000 
10.442069 17.872550 10.762358 179.159075 -2.139814 -151.897591 -24.507423 -21.164464 -20.216973 -1.239954 4.456224 8.946488 0.614202 -1.459281 -16.067487 4.209400 -12.434000 -37.285100 30.127341 19.052013 -18.721993 1.179276 -3.764442 7.612613 -0.991774 0.386000 -20.456394 -2.642900 10.093200 -29.279100 1.620237 -1.196223 -6.307817 -1.421204 -1.489032 11.138851 12.527314 -1.691086 16.757526 2.735000 -0.201900 2.792100 -107.768330 -4.819670 21.848026 12.366006 -13.771441 -1.943461 -1.642318 0.774500 4.657930 -7.125000 0.000000 0.000000 98.691866 -1.514696 9.009307 -15.328267 26.282172 -4.666548 0.702234 3.767852 -0.305772 7.125000 0.000000 0.000000 
10.442069 17.872659 10.748475 179.162257 -2.104197 -151.924837 -24.557689 -21.135076 -20.104774 -1.242579 4.434498 8.915248 0.623977 -1.422730 -16.116398 4.288500 -12.534800 -37.651000 30.142924 19.071573 -18.576262 1.177692 -3.713300 7.512245 -0.992724 0.481409 -20.441323 -2.563200 9.951900 -28.821100 1.602611 -1.154699 -6.289549 -1.446162 -1.473321 11.219348 12.600013 -1.680049 16.754112 2.767200 -0.194100 2.799200 -107.829007 -5.017738 22.169407 12.690429 -14.292722 -2.077326 -1.622833 0.719156 4.052662 -7.125000 0.000000 0.000000 98.619407 -1.434892 9.588216 -15.801477 26.888152 -4.905349 0.634355 3.726234 -0.904830 7.125000 0.000000 0.000000 
10.443163 17.871894 10.731423 179.158923 -2.038611 -151.999768 -24.646270 -21.071992 -19.925967 -1.244498 4.405123 8.880318 0.634383 -1.367637 -16.129063 4.326100 -12.582200 -37.823800 30.189810 19.022076 -18.383488 1.169730 -3.666557 7.446440 -0.992194 0.687931 -20.395424 -2.507300 9.851100 -28.496000 1.592829 -1.126043 -6.247004 -1.435578 -1.464168 11.393473 12.663106 -1.678351 16.751987 2.781800 -0.187400 2.811600 -107.866566 -5.319453 22.117609 12.997657 -14.792832 -2.208715 -1.587313 0.719714 4.132924 -7.125000 0.000000 0.000000 98.487506 -1.398413 10.691902 -16.359102 27.610397 -5.203394 0.588325 3.718374 -2.152965 7.125000 0.000000 0.000000 
10.444365 17.870255 10.718305 179.197463 -2.105668 -152.016858 -24.600004 -21.112625 -19.896450 -1.242093 4.434224 8.963232 0.638737 -1.349407 -16.155205 4.401200 -12.675900 -38.167100 30.283461 19.085285 -18.271616 1.175578 -3.663765 7.457964 -1.001942 0.568933 -20.477097 -2.511900 9.859400 -28.522800 1.606377 -1.167419 -6.222957 -1.410835 -1.484537 11.523556 12.723086 -1.675855 16.742469 2.792800 -0.181400 2.816200 -107.930900 -5.552994 22.323851 13.354424 -15.366586 -2.366789 -1.559148 0.687565 4.116127 -7.125000 0.000000 0.000000 98.396580 -1.272709 11.433993 -16.841604 28.213978 -5.462507 0.536496 3.701505 -3.206729 7.125000 0.000000 0.000000 
10.446114 17.872113 10.708139 179.205111 -2.267114 -152.084359 -24.587703 -21.122965 -19.830643 -1.234577 4.454130 9.034017 0.624651 -1.481001 -16.197540 4.472600 -12.764000 -38.491500 30.363031 19.091382 -18.093657 1.185181 -3.644043 7.450595 -1.031230 0.412126 -20.731704 -2.398200 9.650500 -27.852200 1.615989 -1.226433 -6.215764 -1.390005 -1.509296 11.539949 12.786843 -1.681900 16.723515 2.813800 -0.184000 2.808400 -107.994773 -5.694133 22.761916 13.725351 -15.961355 -2.540070 -1.568354 0.702282 3.718677 -7.125000 0.000000 0.000000 98.377240 -1.139779 11.730512 -17.232085 28.682397 -5.667729 0.459616 3.674528 -3.835509 7.125000 0.000000 0.000000 
10.443709 17.870255 10.684855 179.317884 -2.132732 -152.231426 -24.578347 -21.056089 -19.434974 -1.248601 4.343722 8.833454 0.661283 -1.301394 -16.310149 4.447400 -12.733100 -38.377300 30.553419 18.982553 -17.882126 1.175696 -3.633959 7.491300 -1.050187 0.706236 -20.859187 -2.312400 9.488600 -27.336100 1.600901 -1.126350 -6.184322 -1.412201 -1.458454 11.641052 12.856313 -1.696601 16.721266 2.839000 -0.191100 2.799100 -108.050661 -5.810387 23.149834 14.074268 -16.513508 -2.701153 -1.616004 0.702052 3.176876 -7.125000 0.000000 0.000000 98.391810 -1.135320 12.113391 -17.664123 29.214994 -5.907250 0.420668 3.666313 -4.479904 7.125000 0.000000 0.000000 
10.436385 17.873753 10.651624 179.423785 -1.872396 -152.701076 -24.768508 -21.051691 -18.466659 -1.276501 4.123004 8.454796 0.746327 -0.819154 -16.471799 4.364400 -12.630200 -37.999400 30.820083 18.757659 -17.240043 1.155923 -3.578590 7.543227 -1.053845 0.999292 -20.749371 -2.433100 9.715200 -28.059500 1.557923 -0.954521 -6.095083 -1.506464 -1.362298 11.808948 12.908969 -1.701994 16.728637 2.851400 -0.191100 2.794900 -108.066299 -5.884485 23.529825 14.443347 -17.090083 -2.873774 -1.603535 0.566669 2.714184 -7.125000 0.000000 0.000000 98.484965 -1.154883 12.562527 -18.178741 29.850108 -6.201695 0.408701 3.657601 -5.160563 7.125000 0.000000 0.000000 
10.439118 17.875174 10.645721 179.396563 -1.955670 -152.769782 -24.821158 -21.046581 -18.388233 -1.271543 4.123707 8.475316 0.735866 -0.884855 -16.433350 4.314300 -12.567200 -37.769400 30.830591 18.893750 -17.079136 1.161974 -3.575300 7.562003 -1.051370 0.760885 -20.710663 -2.534900 9.901100 -28.657100 1.539808 -0.967350 -6.085829 -1.513548 -1.368343 11.793008 12.969667 -1.695874 16.697951 2.864500 -0.188200 2.777800 -108.029473 -5.952206 23.921571 14.791599 -17.643202 -3.053273 -1.558289 0.517187 2.358607 -7.125000 0.000000 0.000000 98.579990 -1.120251 12.943834 -18.701904 30.468297 -6.501372 0.394494 3.646695 -5.751326 7.125000 0.000000 0.000000 
10.448628 17.865007 10.664085 179.353464 -2.272453 -152.173837 -24.486326 -21.189721 -19.421835 -1.248994 4.347904 8.838510 0.662745 -1.281411 -16.302708 4.360400 -12.625100 -37.980900 30.577761 19.375455 -17.861376 1.188711 -3.715016 7.664424 -1.055806 0.309659 -20.950670 -2.402000 9.657400 -27.874400 1.554058 -1.112096 -6.175910 -1.471977 -1.459000 11.685184 13.044206 -1.697051 16.645640 2.886400 -0.190500 2.761500 -108.001409 -6.113923 24.226225 15.066982 -18.069745 -3.195115 -1.570949 0.565204 2.133444 -7.125000 0.000000 0.000000 98.646637 -0.949492 13.184815 -19.099664 30.916853 -6.730052 0.382913 3.633214 -6.311084 7.125000 0.000000 0.000000 
10.451252 17.864898 10.659276 179.358517 -2.345406 -152.152739 -24.460382 -21.180606 -19.449904 -1.243944 4.364678 8.879005 0.648928 -1.380839 -16.297530 4.440700 -12.724800 -38.346800 30.612045 19.324455 -17.950316 1.188675 -3.777735 7.815185 -1.077860 0.318662 -21.169817 -2.305500 9.475300 -27.293700 1.539633 -1.116826 -6.162241 -1.490026 -1.463139 11.739506 13.105410 -1.701777 16.625505 2.903000 -0.190500 2.762700 -107.984529 -6.307385 24.507802 15.346846 -18.489646 -3.332328 -1.602144 0.553278 1.836388 -7.125000 0.000000 0.000000 98.724632 -0.721887 13.403480 -19.407321 31.263654 -6.907342 0.330612 3.636659 -6.943214 7.125000 0.000000 0.000000 
10.454313 17.864133 10.655559 179.340280 -2.422017 -152.097583 -24.442272 -21.199580 -19.525540 -1.238719 4.391328 8.933083 0.635027 -1.476239 -16.293404 4.425100 -12.705600 -38.276100 30.604360 19.329490 -18.037486 1.187106 -3.822017 7.910580 -1.073704 0.281031 -21.146614 -2.388000 9.631400 -27.791000 1.540579 -1.170520 -6.167613 -1.467040 -1.491639 11.752706 13.163996 -1.671725 16.597091 2.921800 -0.175800 2.747900 -108.006915 -6.394478 24.688906 15.687863 -19.011152 -3.509969 -1.591280 0.509857 1.436637 -7.125000 0.000000 0.000000 98.783406 -0.663918 13.735814 -19.761619 31.664440 -7.114090 0.298744 3.634243 -7.510787 7.125000 0.000000 0.000000 
10.454531 17.860963 10.647688 179.310692 -2.383387 -152.041071 -24.477016 -21.253394 -19.510168 -1.243470 4.376107 8.889584 0.646036 -1.418709 -16.338481 4.380600 -12.650400 -38.073400 30.551280 19.356872 -18.047485 1.182728 -3.807598 7.868130 -1.060626 0.371875 -21.022105 -2.467900 9.779300 -28.264900 1.531502 -1.176281 -6.181114 -1.441181 -1.499438 11.749731 13.233490 -1.650570 16.569685 2.946900 -0.168200 2.720500 -108.029336 -6.382387 24.910902 16.030169 -19.540304 -3.696710 -1.582180 0.480048 1.102037 -7.125000 0.000000 0.000000 98.862013 -0.672841 13.804734 -20.145917 32.087885 -7.336589 0.315640 3.592033 -7.178003 7.125000 0.000000 0.000000 
10.453766 17.857683 10.636757 179.239470 -2.307634 -151.987855 -24.599540 -21.252384 -19.469281 -1.247844 4.348931 8.821395 0.654691 -1.373075 -16.364097 4.347800 -12.609300 -37.923100 30.441912 19.375283 -18.054651 1.179775 -3.798645 7.843994 -1.058290 0.431326 -20.998881 -2.452900 9.751800 -28.176700 1.504321 -1.130569 -6.172194 -1.418441 -1.487123 11.828212 13.310867 -1.678585 16.554492 2.967300 -0.180500 2.718800 -108.019044 -6.445542 25.278016 16.325502 -19.987218 -3.858927 -1.589706 0.452677 0.916558 -7.125000 0.000000 0.000000 98.974422 -0.571344 14.047261 -20.431992 32.396361 -7.500995 0.298563 3.535020 -7.862399 7.125000 0.000000 0.000000 
10.454968 17.855716 10.626809 179.193298 -2.278408 -151.904014 -24.679932 -21.144322 -19.508047 -1.244848 4.341826 8.795302 0.638348 -1.474766 -16.327112 4.304200 -12.554600 -37.723300 30.395632 19.355826 -18.088955 1.181841 -3.798185 7.831033 -1.057269 0.376329 -20.999035 -2.451200 9.748700 -28.166700 1.501508 -1.097382 -5.987457 -1.415432 -1.473646 11.701535 13.372763 -1.701445 16.529996 2.988000 -0.190000 2.728200 -107.985471 -6.563495 25.635371 16.572437 -20.347030 -3.996514 -1.588021 0.452002 0.668366 -7.125000 0.000000 0.000000 99.060461 -0.377121 13.988123 -20.728602 32.736000 -7.671915 -0.036095 3.914738 -7.362383 7.125000 0.000000 0.000000 
10.457811 17.855716 10.616862 179.158514 -2.313878 -151.881722 -24.733250 -21.059667 -19.525210 -1.239044 4.342257 8.800950 0.618414 -1.602854 -16.287702 4.342700 -12.602900 -37.899800 30.394813 19.312980 -18.029165 1.189132 -3.755917 7.736817 -1.058053 0.222860 -21.000946 -2.492700 9.824600 -28.410600 1.482124 -1.099776 -5.998286 -1.395356 -1.482091 11.674106 13.430033 -1.713886 16.506538 2.985900 -0.194700 2.717700 -107.935018 -6.564725 25.997816 16.804316 -20.693797 -4.126951 -1.616852 0.459402 0.396632 -7.125000 0.000000 0.000000 99.185700 -0.365801 14.254238 -20.925670 32.966610 -7.800255 -0.099481 3.996000 -8.055090 7.125000 0.000000 0.000000 
